<svg width="490" height="140" viewBox="0 0 490 140" fill="none" xmlns="http://www.w3.org/2000/svg">
<path d="M0.529175 69.7827C0.529175 31.4108 31.6358 0.304199 70.0077 0.304199H420.178C458.55 0.304199 489.657 31.4108 489.657 69.7827C489.657 108.155 458.55 139.261 420.178 139.261H70.0076C31.6357 139.261 0.529175 108.155 0.529175 69.7827Z" fill="#80A3FB"/>
<path d="M243.743 50.7292L211.145 77.5771V106.554C211.145 107.304 211.443 108.024 211.973 108.554C212.504 109.085 213.224 109.383 213.974 109.383L233.787 109.331C234.534 109.328 235.25 109.028 235.778 108.498C236.305 107.968 236.601 107.25 236.601 106.502V89.5804C236.601 88.8301 236.899 88.1106 237.43 87.5801C237.96 87.0496 238.68 86.7515 239.43 86.7515H250.746C251.496 86.7515 252.216 87.0496 252.746 87.5801C253.277 88.1106 253.575 88.8301 253.575 89.5804V106.49C253.574 106.862 253.646 107.231 253.787 107.575C253.929 107.92 254.137 108.233 254.4 108.496C254.663 108.76 254.975 108.969 255.319 109.112C255.663 109.254 256.031 109.328 256.404 109.328L276.209 109.383C276.96 109.383 277.679 109.085 278.21 108.554C278.74 108.024 279.038 107.304 279.038 106.554V77.5576L246.448 50.7292C246.065 50.4203 245.587 50.2519 245.095 50.2519C244.603 50.2519 244.126 50.4203 243.743 50.7292ZM295.234 68.9773L280.453 56.7936V32.3043C280.453 31.7416 280.229 31.2019 279.831 30.804C279.433 30.4061 278.894 30.1826 278.331 30.1826H268.43C267.867 30.1826 267.328 30.4061 266.93 30.804C266.532 31.2019 266.308 31.7416 266.308 32.3043V45.1421L250.479 32.1186C248.96 30.8686 247.054 30.1851 245.086 30.1851C243.119 30.1851 241.213 30.8686 239.694 32.1186L194.939 68.9773C194.724 69.1548 194.546 69.373 194.416 69.6193C194.285 69.8656 194.205 70.1352 194.178 70.4127C194.152 70.6901 194.181 70.9701 194.263 71.2365C194.345 71.5029 194.478 71.7505 194.656 71.9653L199.165 77.4463C199.342 77.6617 199.56 77.8401 199.806 77.9713C200.052 78.1024 200.322 78.1837 200.6 78.2105C200.877 78.2372 201.158 78.209 201.424 78.1273C201.691 78.0456 201.939 77.9121 202.154 77.7344L243.743 43.4802C244.126 43.1713 244.603 43.0029 245.095 43.0029C245.587 43.0029 246.065 43.1713 246.448 43.4802L288.038 77.7344C288.252 77.9121 288.5 78.0458 288.766 78.1277C289.033 78.2097 289.313 78.2384 289.59 78.2121C289.868 78.1858 290.137 78.1051 290.384 77.9746C290.63 77.8441 290.848 77.6664 291.026 77.4516L295.534 71.9706C295.712 71.7546 295.845 71.5057 295.926 71.2381C296.007 70.9705 296.034 70.6896 296.006 70.4114C295.978 70.1333 295.896 69.8634 295.763 69.6173C295.63 69.3711 295.45 69.1536 295.234 68.9773Z" fill="white"/>
</svg>
