<svg width="294" height="138" viewBox="0 0 294 138" fill="none" xmlns="http://www.w3.org/2000/svg">
<path d="M13.048 35.517C11.4844 36.0862 9.95477 36.2342 8.45923 35.9613C6.96368 35.6883 5.5974 34.9597 4.3604 33.7753C3.11975 32.581 2.10359 30.8963 1.31193 28.7212C0.509321 26.516 0.201176 24.5623 0.387493 22.8599C0.570163 21.1475 1.14842 19.7111 2.12228 18.5507C3.09248 17.3803 4.35941 16.5105 5.92306 15.9414C7.48671 15.3722 9.0163 15.2242 10.5119 15.4971C12.0074 15.7701 13.3755 16.5037 14.6162 17.6981C15.8568 18.8925 16.8748 20.5822 17.6701 22.7673C18.4691 24.9624 18.7772 26.9162 18.5945 28.6286C18.4082 30.331 17.8281 31.7624 16.8543 32.9228C15.8804 34.0832 14.6117 34.9479 13.048 35.517ZM12.26 33.352C14.0341 32.7063 15.1971 31.5508 15.7489 29.8857C16.3107 28.2169 16.1355 26.1296 15.2235 23.6237C14.3297 21.168 13.1258 19.4665 11.6118 18.5192C10.1042 17.5582 8.46332 17.4005 6.68918 18.0463C4.93509 18.6847 3.77943 19.8602 3.22221 21.5727C2.67502 23.2816 2.85015 25.3689 3.74761 27.8347C4.65602 30.3305 5.86173 32.037 7.36476 32.9543C8.87417 33.8579 10.5059 33.9904 12.26 33.352Z" fill="#EB5D49"/>
<path d="M32.3082 28.5069C31.2557 28.89 30.251 28.9832 29.2941 28.7867C28.3472 28.5865 27.4954 28.1019 26.7388 27.333C25.9785 26.554 25.3558 25.498 24.8706 24.1649L25.8629 23.8037C26.1876 24.6958 26.6466 25.38 27.24 25.8565C27.8335 26.3329 28.4842 26.6239 29.1923 26.7294C29.9068 26.8212 30.5999 26.7449 31.2714 26.5005C31.9931 26.2378 32.6099 25.7806 33.1219 25.1289C33.6302 24.4671 33.9471 23.6537 34.0726 22.6886C34.1981 21.7234 34.0438 20.6445 33.6096 19.4517C33.1937 18.309 32.6426 17.4029 31.9561 16.7333C31.2798 16.06 30.5374 15.6265 29.729 15.4326C28.9206 15.2387 28.1205 15.2859 27.3286 15.5741C26.647 15.8222 26.0657 16.221 25.5847 16.7707C25.1037 17.3204 24.7945 17.9834 24.6571 18.7599C24.5161 19.5264 24.6152 20.3757 24.9545 21.3079L23.9622 21.669C23.4551 20.2758 23.2606 19.0242 23.3787 17.9141C23.4932 16.7941 23.8589 15.8494 24.4756 15.0801C25.0923 14.3108 25.8918 13.7473 26.8741 13.3898C27.9967 12.9812 29.1536 12.9007 30.3448 13.1482C31.536 13.3957 32.6365 13.9713 33.6465 14.8751C34.6565 15.7788 35.4461 17.0125 36.0152 18.5761C36.5916 20.1598 36.7803 21.6293 36.5811 22.9845C36.3919 24.336 35.9157 25.4912 35.1523 26.4501C34.3889 27.4091 33.4408 28.0947 32.3082 28.5069ZM28.2236 37.5875L20.4201 16.1475L22.3747 15.4361L23.9914 18.6617L30.5691 36.7339L28.2236 37.5875Z" fill="#EB5D49"/>
<path d="M48.3645 22.6629C47.1216 23.1153 45.8941 23.2045 44.6819 22.9305C43.4762 22.6429 42.3815 22.0368 41.3979 21.1121C40.4244 20.1837 39.6695 18.9828 39.1332 17.5094C38.5604 15.9357 38.3485 14.4804 38.4976 13.1435C38.6467 11.8065 39.0979 10.6604 39.8513 9.70515C40.611 8.7362 41.6174 8.02371 42.8703 7.56768C43.9628 7.17002 44.9753 7.05125 45.9076 7.21137C46.8399 7.37149 47.6784 7.74169 48.4231 8.32198C49.1679 8.90227 49.8037 9.63569 50.3307 10.5222C50.8641 11.3951 51.2749 12.3523 51.5632 13.3939L41.1589 17.1807L40.6336 15.7374L49.4892 12.5142L48.9618 13.2169C48.7766 12.6146 48.5263 12.036 48.2108 11.4811C47.9054 10.9226 47.533 10.4451 47.0936 10.0489C46.6506 9.64254 46.1388 9.37476 45.5582 9.24553C44.9777 9.11629 44.3216 9.18484 43.5899 9.45115C42.6677 9.78679 41.9816 10.3033 41.5317 11.0005C41.0817 11.6978 40.8418 12.4889 40.812 13.3738C40.7785 14.2487 40.9241 15.1322 41.2488 16.0242L41.599 16.9865C41.9639 17.9888 42.4407 18.8312 43.0296 19.5136C43.6286 20.1924 44.3177 20.651 45.0969 20.8895C45.8761 21.1281 46.7319 21.0777 47.664 20.7384C48.5962 20.3991 49.2809 19.8945 49.7181 19.2246C50.1554 18.5546 50.2786 17.7549 50.0879 16.8254L52.5236 15.9389C52.7198 16.9459 52.6782 17.8918 52.3986 18.7768C52.1155 19.6517 51.6304 20.4242 50.9435 21.0942C50.2566 21.7642 49.3969 22.2871 48.3645 22.6629Z" fill="#EB5D49"/>
<path d="M68.9116 14.7757L65.8361 6.32602C65.3363 4.95282 64.6261 4.03077 63.7056 3.5599C62.7914 3.07535 61.7679 3.0392 60.6353 3.45144C59.7733 3.76519 59.1123 4.27253 58.6523 4.97347C58.1923 5.67441 57.9524 6.52792 57.9326 7.53402C57.9092 8.53009 58.1183 9.63455 58.5597 10.8474L57.6576 11.1757C57.0483 9.50181 56.749 7.99322 56.7595 6.64993C56.77 5.30665 57.0832 4.17106 57.699 3.24316C58.3211 2.30159 59.2386 1.61009 60.4515 1.16865C61.5841 0.756406 62.6444 0.65995 63.6323 0.879286C64.6266 1.08495 65.5107 1.58044 66.2847 2.36577C67.0586 3.15109 67.6809 4.19027 68.1515 5.48328L71.227 13.933L68.9116 14.7757ZM58.6877 18.4969L53.4562 4.12338L55.4709 3.39009L57.0055 6.57741L61.0332 17.6432L58.6877 18.4969Z" fill="#EB5D49"/>
<path d="M33.4417 80.99L47.7752 39.7897H50.5264L64.792 80.99H62.1427L57.9989 68.5926H40.4047L36.0231 80.99H33.4417ZM41.05 66.3848H57.1837L49.0999 43.0504L41.05 66.3848Z" fill="black"/>
<path d="M74.2997 39.7897H77.968L94.9168 71.8533H94.5092L111.492 39.7897H115.126V80.99H112.545V41.4541H113.224L95.6641 75.08H93.8639L76.3716 41.7258H76.8132V80.99H74.2997V39.7897Z" fill="black"/>
<path d="M124.592 80.99L138.925 39.7897H141.676L155.942 80.99H153.293L149.149 68.5926H131.555L127.173 80.99H124.592ZM132.2 66.3848H148.334L140.25 43.0504L132.2 66.3848Z" fill="black"/>
<path d="M163.004 80.99V78.4766L189.701 41.3861V42.3711L163.004 42.0315V39.7897H192.248V42.3711L165.585 79.1559L164.94 78.4086L192.248 78.7483V80.99H163.004Z" fill="black"/>
<path d="M203.064 80.99V39.7897H205.577V80.99H203.064Z" fill="black"/>
<path d="M220.378 39.7897H224.216L247.551 78.6804H247.211V39.7897H249.725V80.99H246.124L222.586 41.7258H222.892V80.99H220.378V39.7897Z" fill="black"/>
<path d="M278.486 81.6693C275.293 81.6693 272.361 80.8541 269.689 79.2238C267.017 77.5935 264.877 75.2498 263.269 72.1929C261.684 69.1134 260.892 65.4224 260.892 61.1201C260.892 57.3386 261.424 54.0666 262.488 51.3041C263.575 48.5415 265.024 46.2659 266.836 44.477C268.67 42.6881 270.731 41.3635 273.018 40.503C275.327 39.6199 277.693 39.1784 280.116 39.1784C282.63 39.1784 284.985 39.6539 287.181 40.6049C289.4 41.556 291.529 43.0504 293.567 45.0884L291.834 46.7187C289.91 44.8393 287.962 43.5033 285.992 42.7108C284.045 41.8956 282.086 41.488 280.116 41.488C277.173 41.488 274.433 42.2806 271.897 43.8656C269.361 45.428 267.323 47.6811 265.783 50.6248C264.243 53.5458 263.473 57.0443 263.473 61.1201C263.473 64.562 264.062 67.6529 265.239 70.3927C266.417 73.1326 268.126 75.3064 270.368 76.9141C272.61 78.4992 275.305 79.2917 278.452 79.2917C280.694 79.2917 282.698 78.7709 284.464 77.7293C286.253 76.6651 287.657 75.0007 288.676 72.7364C289.717 70.472 290.238 67.5396 290.238 63.9393H291.733C291.733 67.517 291.302 70.6418 290.442 73.3138C289.581 75.9631 288.178 78.0237 286.23 79.4955C284.305 80.9447 281.724 81.6693 278.486 81.6693ZM290.985 80.99L290.238 70.5965V63.9393L278.656 63.4638V61.3919H292.819V80.99H290.985Z" fill="black"/>
<path d="M102.206 136.581V95.3809H116.301C119.154 95.3809 121.509 95.8791 123.366 96.8754C125.246 97.8717 126.649 99.1851 127.578 100.815C128.506 102.423 128.97 104.144 128.97 105.978C128.97 108.378 128.314 110.496 127 112.33C125.687 114.164 123.604 115.375 120.751 115.964C122.585 116.145 124.17 116.745 125.506 117.764C126.865 118.783 127.906 119.995 128.631 121.399C129.355 122.802 129.718 124.195 129.718 125.576C129.718 127.071 129.469 128.486 128.97 129.822C128.495 131.158 127.725 132.335 126.661 133.354C125.597 134.351 124.204 135.143 122.483 135.732C120.762 136.298 118.679 136.581 116.233 136.581H102.206ZM104.719 134.407H116.301C120.219 134.407 123.004 133.57 124.657 131.894C126.31 130.196 127.136 128.078 127.136 125.542C127.136 122.984 126.208 120.923 124.351 119.361C122.494 117.798 119.811 117.017 116.301 117.017H104.719V134.407ZM104.719 97.4868V114.945H116.233C119.177 114.945 121.6 114.175 123.502 112.635C125.427 111.073 126.389 108.82 126.389 105.876C126.389 103.182 125.461 101.11 123.604 99.6606C121.747 98.2114 119.313 97.4868 116.301 97.4868H104.719Z" fill="black"/>
<path d="M149.06 136.581V95.3809H162.476C166.937 95.3809 170.254 96.4791 172.428 98.6756C174.602 100.849 175.689 103.657 175.689 107.099C175.689 110.564 174.602 113.394 172.428 115.59C170.254 117.764 166.937 118.851 162.476 118.851H151.573V136.581H149.06ZM173.039 136.581L160.268 118.545H163.189L176.232 136.581H173.039ZM151.573 116.779H162.51C165.952 116.779 168.578 115.885 170.39 114.096C172.201 112.284 173.107 109.93 173.107 107.031C173.107 104.065 172.19 101.732 170.356 100.034C168.544 98.3359 165.918 97.4868 162.476 97.4868H151.573V116.779Z" fill="black"/>
<path d="M194.918 136.581V95.3809H197.432V136.581H194.918Z" fill="black"/>
<path d="M232.273 137.26C228.627 137.26 225.513 136.298 222.932 134.373C220.373 132.426 218.415 129.811 217.056 126.527C215.697 123.244 215.018 119.576 215.018 115.523C215.018 111.039 215.788 107.258 217.328 104.178C218.89 101.098 220.973 98.7662 223.577 97.1811C226.204 95.5734 229.102 94.7695 232.273 94.7695C236.235 94.7695 239.53 95.7998 242.157 97.8604C244.806 99.921 246.776 102.593 248.067 105.876L245.281 106.624C244.24 103.612 242.542 101.246 240.187 99.5247C237.832 97.8038 235.194 96.9433 232.273 96.9433C229.737 96.9433 227.359 97.6566 225.14 99.0832C222.943 100.51 221.155 102.604 219.773 105.367C218.415 108.129 217.735 111.515 217.735 115.523C217.735 119.078 218.233 122.327 219.23 125.271C220.249 128.214 221.823 130.581 223.951 132.369C226.102 134.136 228.876 135.019 232.273 135.019C236.145 135.019 239.281 133.977 241.681 131.894C244.081 129.788 245.281 126.969 245.281 123.437H248.202C248.202 126.244 247.5 128.69 246.097 130.773C244.693 132.834 242.791 134.43 240.39 135.562C237.99 136.694 235.284 137.26 232.273 137.26Z" fill="black"/>
<path d="M288.913 95.3809H292.48L267.108 121.704V117.764L288.913 95.3809ZM274.172 113.179L293.567 136.581H290.102L272.168 114.843L274.172 113.179ZM265.341 95.3809H267.923V136.581H265.341V95.3809Z" fill="black"/>
<path d="M33.4417 115.02L55.6822 92.7796L77.9227 115.02L55.6822 137.261L33.4417 115.02Z" fill="black"/>
</svg>
