<svg width="53" height="63" viewBox="0 0 53 63" fill="none" xmlns="http://www.w3.org/2000/svg">
<path d="M51.7736 48.9843C50.9072 52.6936 48.0913 54.7784 44.3143 55.4823C40.9976 56.0915 38.2359 56.2404 35.5826 54.1015C32.3471 51.3804 32.3064 46.8724 35.217 44.0295C37.5184 41.8364 40.7539 41.3896 45.614 40.5368C46.4262 40.3878 47.1302 40.1983 47.7258 39.535C48.5922 38.5603 48.3215 38.9799 48.3215 17.4415C48.3215 15.9253 47.5769 15.5056 46.0201 15.7764C44.91 15.9659 20.8807 20.4604 20.8807 20.4604C19.4998 20.7583 19.0666 21.1644 19.0666 22.7212C19.0666 54.4941 19.2155 53.032 18.7282 55.1439C18.1596 57.6077 16.6434 59.4624 14.6398 60.4913C12.3655 61.7503 8.25003 62.3053 6.05693 61.8992C0.208662 60.8026 -1.84906 54.0473 2.11747 50.1756C4.41887 47.9825 7.65437 47.5357 12.5144 46.6829C13.3266 46.5339 14.0306 46.3444 14.6263 45.6811C15.9936 44.1242 14.8699 10.9435 15.3302 9.10233C15.4385 8.39837 15.7364 7.80271 16.2914 7.35597C16.86 6.88215 17.8888 6.6114 18.1054 6.6114C45.7223 1.44002 49.0931 0.776673 49.567 0.776673C51.1238 0.668371 52.0173 1.58893 52.0173 3.1593C52.0443 49.7965 52.1662 47.2921 51.7736 48.9843Z" fill="black"/>
</svg>
