<svg width="59" height="62" viewBox="0 0 59 62" fill="none" xmlns="http://www.w3.org/2000/svg">
<path d="M36.8025 0C36.0685 0 35.3413 0.203798 34.6992 0.591413C34.638 0.627377 34.5794 0.670002 34.5261 0.71529L16.4773 15.9841H2.31272C1.57612 15.9841 0.980713 16.5795 0.980713 17.3161V42.6244C0.980713 43.361 1.57612 43.9564 2.31272 43.9564H16.4454L34.4848 60.5213C34.5514 60.5825 34.6233 60.6358 34.6992 60.6811C35.3426 61.0687 36.0699 61.2725 36.8025 61.2725C39.0842 61.2725 40.9397 59.3864 40.9397 57.0687V4.20383C40.941 1.88613 39.0842 0 36.8025 0ZM18.2969 41.2923C18.2969 42.0289 17.7014 42.6244 16.9648 42.6244C16.2282 42.6244 15.6328 42.0289 15.6328 41.2923V35.9643C15.6328 35.2277 16.2282 34.6323 16.9648 34.6323C17.7014 34.6323 18.2969 35.2277 18.2969 35.9643V41.2923ZM18.2969 23.9762C18.2969 24.7128 17.7014 25.3082 16.9648 25.3082C16.2282 25.3082 15.6328 24.7128 15.6328 23.9762V18.6482C15.6328 17.9116 16.2282 17.3161 16.9648 17.3161C17.7014 17.3161 18.2969 17.9116 18.2969 18.6482V23.9762Z" fill="black"/>
<path d="M58.2918 29.9701C58.2918 22.0154 52.9518 14.9158 45.3061 12.7046C44.5961 12.5035 43.8622 12.9071 43.657 13.6157C43.4532 14.3217 43.8595 15.0609 44.5681 15.2647C51.0803 17.1469 55.6292 23.1942 55.6292 29.9701C55.6292 36.7461 51.0803 42.7934 44.5681 44.6755C43.8608 44.8793 43.4532 45.6186 43.657 46.3246C43.8262 46.908 44.3577 47.2876 44.9371 47.2876C45.0596 47.2876 45.1835 47.2703 45.3061 47.2357C52.9518 45.0245 58.2918 37.9249 58.2918 29.9701Z" fill="#80A3FB"/>
</svg>
